<?xml version="1.0" encoding="UTF-8"?>
<svg width="328px" height="247px" viewBox="0 0 328 247" version="1.1" xmlns="http://www.w3.org/2000/svg" xmlns:xlink="http://www.w3.org/1999/xlink">
    <title>Logo NB v2 + Label vertical</title>
    <g id="Logo-NB-v2-+-Label-vertical" stroke="none" stroke-width="1" fill="none" fill-rule="evenodd">
        <g id="Group-4" transform="translate(81.000000, 0.000000)">
            <g id="Group" transform="translate(0.000000, 108.994174)">
                <polygon id="Path" fill="#6976F5" transform="translate(51.500000, 16.032251) rotate(-0.000000) translate(-51.500000, -16.032251) " points="19.182863 1.52418814e-07 -1.42108547e-14 32.0645016 103 32.0645021"></polygon>
                <polygon id="Path" fill="#5346CD" transform="translate(9.591431, 16.032251) rotate(-0.000000) translate(-9.591431, -16.032251) " points="19.182863 -6.7465754e-14 1.17115206e-11 32.0645018 19.1828628 32.0645019"></polygon>
            </g>
            <g id="Group-2" transform="translate(83.548740, 51.764994)">
                <polygon id="Path-Copy" fill="#E74895" transform="translate(41.194590, 52.931548) rotate(-121.000000) translate(-41.194590, -52.931548) " points="8.44160615 36.8408012 -10.888825 68.8786904 93.2780058 69.0222942"></polygon>
                <polygon id="Path-Copy-4" fill="#BF135D" transform="translate(61.738606, 87.261942) rotate(-121.000000) translate(-61.738606, -87.261942) " points="68.9934627 71.2429971 49.6630315 103.280886 73.8141798 103.255202"></polygon>
            </g>
            <g id="Group-3" transform="translate(27.829372, 0.000000)">
                <polygon id="Path-Copy-2" fill="#0692A1" transform="translate(41.464982, 55.989668) rotate(-240.000000) translate(-41.464982, -55.989668) " points="6.4255751 39.4152734 -12.7572879 71.4797748 95.687252 72.5640633"></polygon>
                <polygon id="Path-Copy-3" fill="#056672" transform="translate(63.872514, 18.109158) rotate(-240.000000) translate(-63.872514, -18.109158) " points="72.8423561 2 53.6594932 34.0645014 74.0855338 34.2183169"></polygon>
            </g>
        </g>
        <path d="M28.5586301,247.485338 C32.9598735,247.485338 36.8913213,246.780645 40.3529734,245.371258 C43.8146255,243.961871 46.7323038,242.070325 49.1060081,239.696621 L49.1060081,239.696621 L38.2759821,226.715426 C37.4352952,227.852826 36.2855321,228.841869 34.826693,229.682556 C33.3678539,230.523243 31.6246648,230.943586 29.5971257,230.943586 C28.1630127,230.943586 26.8030779,230.683963 25.5173214,230.164715 C24.2315649,229.645467 23.106528,228.891321 22.1422106,227.902278 C21.1778932,226.913234 20.4113845,225.738745 19.8426845,224.37881 C19.2739845,223.018876 18.9896345,221.473495 18.9896345,219.742669 C18.9896345,218.011843 19.2616215,216.441737 19.8055954,215.03235 C20.3495693,213.622963 21.1037149,212.423748 22.0680323,211.434704 C23.0323497,210.445661 24.1573866,209.691515 25.4431432,209.172267 C26.7288997,208.653019 28.1135605,208.393395 29.5971257,208.393395 C31.4268561,208.393395 33.0835039,208.727198 34.5670691,209.394802 C36.0506343,210.062406 37.2869387,211.039087 38.2759821,212.324843 L38.2759821,212.324843 L49.1060081,199.269469 C46.6828516,197.044122 43.666269,195.276206 40.0562604,193.965724 C36.4462517,192.655241 32.6137083,192 28.5586301,192 C24.6024562,192 20.8811802,192.655241 17.394802,193.965724 C13.9084237,195.276206 10.8794781,197.143026 8.30796511,199.566183 C5.7364521,201.989339 3.708913,204.907017 2.2253478,208.319217 C0.741782599,211.731417 0,215.539234 0,219.742669 C0,223.896652 0.741782599,227.66738 2.2253478,231.054854 C3.708913,234.442328 5.7364521,237.360006 8.30796511,239.807889 C10.8794781,242.255771 13.9084237,244.147317 17.394802,245.482525 C20.8811802,246.817734 24.6024562,247.485338 28.5586301,247.485338 Z M79.8238731,247.485338 C83.9778556,247.485338 87.8351252,246.817734 91.3956816,245.482525 C94.9562381,244.147317 98.0469989,242.255771 100.667964,239.807889 C103.288929,237.360006 105.341194,234.405239 106.82476,230.943586 C108.308325,227.481934 109.050107,223.649391 109.050107,219.445956 C109.050107,215.242521 108.308325,211.447067 106.82476,208.059593 C105.341194,204.672119 103.288929,201.79153 100.667964,199.417826 C98.0469989,197.044122 94.9562381,195.214391 91.3956816,193.928635 C87.8351252,192.642878 83.9778556,192 79.8238731,192 C75.6698905,192 71.812621,192.642878 68.2520645,193.928635 C64.6915081,195.214391 61.6131103,197.044122 59.0168712,199.417826 C56.4206321,201.79153 54.3807299,204.672119 52.8971647,208.059593 C51.4135995,211.447067 50.6718169,215.242521 50.6718169,219.445956 C50.6718169,223.649391 51.4135995,227.481934 52.8971647,230.943586 C54.3807299,234.405239 56.4206321,237.360006 59.0168712,239.807889 C61.6131103,242.255771 64.6915081,244.147317 68.2520645,245.482525 C71.812621,246.817734 75.6698905,247.485338 79.8238731,247.485338 Z M79.8238731,231.166121 C78.3403079,231.166121 76.955647,230.881771 75.6698905,230.313071 C74.384134,229.744371 73.2838232,228.940773 72.368958,227.902278 C71.4540928,226.863782 70.7370362,225.627478 70.2177884,224.193365 C69.6985406,222.759252 69.4389167,221.176782 69.4389167,219.445956 C69.4389167,217.764582 69.6985406,216.219202 70.2177884,214.809815 C70.7370362,213.400428 71.4540928,212.213576 72.368958,211.249258 C73.2838232,210.284941 74.384134,209.530795 75.6698905,208.986822 C76.955647,208.442848 78.3403079,208.170861 79.8238731,208.170861 C81.3074383,208.170861 82.6797361,208.442848 83.9407665,208.986822 C85.2017969,209.530795 86.3021078,210.284941 87.2416991,211.249258 C88.1812904,212.213576 88.9107099,213.400428 89.4299577,214.809815 C89.9492056,216.219202 90.2088295,217.764582 90.2088295,219.445956 C90.2088295,221.176782 89.9492056,222.759252 89.4299577,224.193365 C88.9107099,225.627478 88.1812904,226.863782 87.2416991,227.902278 C86.3021078,228.940773 85.2017969,229.744371 83.9407665,230.313071 C82.6797361,230.881771 81.3074383,231.166121 79.8238731,231.166121 Z M139.990507,247.485338 C144.095038,247.485338 147.692683,246.916638 150.783444,245.779238 C153.874205,244.641838 156.458081,243.084095 158.535072,241.106008 C160.612064,239.127921 162.18217,236.791306 163.245392,234.096163 C164.308613,231.401019 164.840224,228.495704 164.840224,225.380217 L164.840224,225.380217 L164.840224,193.483565 L147.259977,193.483565 L147.259977,223.451582 C147.259977,225.973643 146.654188,227.939367 145.442609,229.348754 C144.231031,230.758141 142.512568,231.462834 140.28722,231.462834 C138.061873,231.462834 136.34341,230.758141 135.131831,229.348754 C133.920253,227.939367 133.314464,225.973643 133.314464,223.451582 L133.314464,223.451582 L133.314464,193.483565 L115.660038,193.483565 L115.660038,225.380217 C115.660038,228.495704 116.15456,231.401019 117.143603,234.096163 C118.132647,236.791306 119.640938,239.127921 121.668477,241.106008 C123.696016,243.084095 126.23044,244.641838 129.271749,245.779238 C132.313057,246.916638 135.885977,247.485338 139.990507,247.485338 Z M190.884859,246.001773 L190.884859,227.234673 L191.404107,227.234673 L201.49235,246.001773 L221.817193,246.001773 L208.465107,224.712613 C211.432237,223.377404 213.707037,221.485858 215.289507,219.037976 C216.871976,216.590093 217.663211,213.758956 217.663211,210.544565 C217.663211,207.231269 217.045059,204.474311 215.808754,202.273689 C214.57245,200.073067 212.952891,198.317515 210.950078,197.007033 C208.947265,195.69655 206.672465,194.781685 204.125678,194.262437 C201.578891,193.743189 199.019741,193.483565 196.448228,193.483565 L196.448228,193.483565 L173.823859,193.483565 L173.823859,246.001773 L190.884859,246.001773 Z M194.222881,215.662865 L190.736502,215.662865 L190.736502,207.206543 L194.964663,207.206543 C195.508637,207.206543 196.102063,207.243632 196.744942,207.317811 C197.38782,207.391989 197.981246,207.565072 198.52522,207.837058 C199.069194,208.109045 199.514263,208.517026 199.860428,209.061 C200.206594,209.604974 200.379676,210.346756 200.379676,211.286348 C200.379676,212.225939 200.169505,212.980085 199.749161,213.548785 C199.328818,214.117485 198.80957,214.562554 198.191418,214.883993 C197.573265,215.205432 196.905661,215.415604 196.188605,215.514508 C195.471548,215.613413 194.816307,215.662865 194.222881,215.662865 L194.222881,215.662865 Z M243.93038,247.485338 C246.600798,247.485338 249.221763,247.102084 251.793276,246.335575 C254.364789,245.569067 256.676678,244.406941 258.728943,242.849197 C260.781208,241.291454 262.437856,239.338093 263.698887,236.989115 C264.959917,234.640136 265.590432,231.883178 265.590432,228.718239 C265.590432,225.998369 265.021732,223.723569 263.884332,221.893839 C262.746932,220.064108 261.300456,218.518728 259.544904,217.257698 C257.789352,215.996667 255.87308,214.970534 253.796089,214.1793 C251.719098,213.388065 249.741011,212.695735 247.861828,212.102308 C246.032098,211.508882 244.709252,211.014361 243.893291,210.618743 C243.07733,210.223126 242.66935,209.6297 242.66935,208.838465 C242.66935,207.997778 243.064967,207.391989 243.856202,207.021098 C244.647437,206.650206 245.685932,206.464761 246.971689,206.464761 C248.35635,206.464761 249.914093,206.848015 251.644919,207.614524 C253.375745,208.381032 254.834584,209.506069 256.021437,210.989635 L256.021437,210.989635 L266.999819,199.788717 C264.27995,197.266656 261.127374,195.338022 257.542091,194.002813 C253.956808,192.667604 250.433341,192 246.971689,192 C244.400176,192 241.803937,192.321439 239.182972,192.964317 C236.562006,193.607196 234.200665,194.658054 232.098948,196.116893 C229.99723,197.575733 228.278767,199.442552 226.943559,201.717352 C225.60835,203.992152 224.940746,206.761474 224.940746,210.025317 C224.940746,212.349569 225.311637,214.340019 226.05342,215.996667 C226.795202,217.653315 227.796609,219.075065 229.057639,220.261917 C230.31867,221.448769 231.765146,222.450176 233.397067,223.266137 C235.028989,224.082097 236.735089,224.786791 238.515367,225.380217 C240.345098,225.973643 241.865752,226.492891 243.07733,226.93796 C244.288908,227.38303 245.240863,227.79101 245.933193,228.161902 C246.625524,228.532793 247.107682,228.891321 247.379669,229.237486 C247.651656,229.583652 247.78765,230.003995 247.78765,230.498517 C247.78765,231.438108 247.379669,232.080986 246.563708,232.427152 C245.747748,232.773317 244.845245,232.946399 243.856202,232.946399 C241.680306,232.946399 239.566226,232.427152 237.513961,231.388656 C235.461696,230.35016 233.817411,229.163308 232.581106,227.8281 L232.581106,227.8281 L221.825259,239.548265 C223.160467,240.735117 224.668759,241.810702 226.350133,242.775019 C228.031507,243.739336 229.824148,244.580023 231.728056,245.29708 C233.631965,246.014136 235.610052,246.55811 237.662317,246.929001 C239.714582,247.299893 241.803937,247.485338 243.93038,247.485338 Z M299.201249,247.485338 C303.355232,247.485338 307.212501,246.817734 310.773058,245.482525 C314.333614,244.147317 317.424375,242.255771 320.04534,239.807889 C322.666306,237.360006 324.718571,234.405239 326.202136,230.943586 C327.685701,227.481934 328.427484,223.649391 328.427484,219.445956 C328.427484,215.242521 327.685701,211.447067 326.202136,208.059593 C324.718571,204.672119 322.666306,201.79153 320.04534,199.417826 C317.424375,197.044122 314.333614,195.214391 310.773058,193.928635 C307.212501,192.642878 303.355232,192 299.201249,192 C295.047267,192 291.189997,192.642878 287.629441,193.928635 C284.068884,195.214391 280.990486,197.044122 278.394247,199.417826 C275.798008,201.79153 273.758106,204.672119 272.274541,208.059593 C270.790976,211.447067 270.049193,215.242521 270.049193,219.445956 C270.049193,223.649391 270.790976,227.481934 272.274541,230.943586 C273.758106,234.405239 275.798008,237.360006 278.394247,239.807889 C280.990486,242.255771 284.068884,244.147317 287.629441,245.482525 C291.189997,246.817734 295.047267,247.485338 299.201249,247.485338 Z M299.201249,231.166121 C297.717684,231.166121 296.333023,230.881771 295.047267,230.313071 C293.76151,229.744371 292.661199,228.940773 291.746334,227.902278 C290.831469,226.863782 290.114412,225.627478 289.595165,224.193365 C289.075917,222.759252 288.816293,221.176782 288.816293,219.445956 C288.816293,217.764582 289.075917,216.219202 289.595165,214.809815 C290.114412,213.400428 290.831469,212.213576 291.746334,211.249258 C292.661199,210.284941 293.76151,209.530795 295.047267,208.986822 C296.333023,208.442848 297.717684,208.170861 299.201249,208.170861 C300.684814,208.170861 302.057112,208.442848 303.318143,208.986822 C304.579173,209.530795 305.679484,210.284941 306.619075,211.249258 C307.558667,212.213576 308.288086,213.400428 308.807334,214.809815 C309.326582,216.219202 309.586206,217.764582 309.586206,219.445956 C309.586206,221.176782 309.326582,222.759252 308.807334,224.193365 C308.288086,225.627478 307.558667,226.863782 306.619075,227.902278 C305.679484,228.940773 304.579173,229.744371 303.318143,230.313071 C302.057112,230.881771 300.684814,231.166121 299.201249,231.166121 Z" id="COURSO" fill="#000000" fill-rule="nonzero"></path>
    </g>
</svg>