<?xml version="1.0" encoding="UTF-8"?>
<svg width="518px" height="141px" viewBox="0 0 518 141" version="1.1" xmlns="http://www.w3.org/2000/svg" xmlns:xlink="http://www.w3.org/1999/xlink">
    <title>Logo NB v2 + Label</title>
    <g id="Logo-NB-v2-+-Label" stroke="none" stroke-width="1" fill="none" fill-rule="evenodd">
        <g id="Group-4" transform="translate(0.000000, -0.058676)">
            <g id="Group" transform="translate(0.000000, 108.994174)">
                <polygon id="Path" fill="#6976F5" transform="translate(51.500000, 16.032251) rotate(-0.000000) translate(-51.500000, -16.032251) " points="19.182863 1.52418814e-07 -1.42108547e-14 32.0645016 103 32.0645021"></polygon>
                <polygon id="Path" fill="#5346CD" transform="translate(9.591431, 16.032251) rotate(-0.000000) translate(-9.591431, -16.032251) " points="19.182863 -6.7465754e-14 1.17115206e-11 32.0645018 19.1828628 32.0645019"></polygon>
            </g>
            <g id="Group-2" transform="translate(83.548740, 51.764994)">
                <polygon id="Path-Copy" fill="#E74895" transform="translate(41.194590, 52.931548) rotate(-121.000000) translate(-41.194590, -52.931548) " points="8.44160615 36.8408012 -10.888825 68.8786904 93.2780058 69.0222942"></polygon>
                <polygon id="Path-Copy-4" fill="#BF135D" transform="translate(61.738606, 87.261942) rotate(-121.000000) translate(-61.738606, -87.261942) " points="68.9934627 71.2429971 49.6630315 103.280886 73.8141798 103.255202"></polygon>
            </g>
            <g id="Group-3" transform="translate(27.829372, 0.000000)">
                <polygon id="Path-Copy-2" fill="#0692A1" transform="translate(41.464982, 55.989668) rotate(-240.000000) translate(-41.464982, -55.989668) " points="6.4255751 39.4152734 -12.7572879 71.4797748 95.687252 72.5640633"></polygon>
                <polygon id="Path-Copy-3" fill="#056672" transform="translate(63.872514, 18.109158) rotate(-240.000000) translate(-63.872514, -18.109158) " points="72.8423561 2 53.6594932 34.0645014 74.0855338 34.2183169"></polygon>
            </g>
        </g>
        <path d="M218.203558,102.852761 C222.604802,102.852761 226.536249,102.148068 229.997901,100.738681 C233.459554,99.3292937 236.377232,97.4377481 238.750936,95.0640438 L238.750936,95.0640438 L227.92091,82.0828483 C227.080223,83.2202483 225.93046,84.2092918 224.471621,85.0499787 C223.012782,85.8906657 221.269593,86.3110091 219.242054,86.3110091 C217.807941,86.3110091 216.448006,86.0513852 215.162249,85.5321374 C213.876493,85.0128896 212.751456,84.2587439 211.787139,83.2697005 C210.822821,82.280657 210.056313,81.1061679 209.487613,79.7462331 C208.918913,78.3862984 208.634563,76.8409179 208.634563,75.1100919 C208.634563,73.3792658 208.90655,71.8091593 209.450523,70.3997724 C209.994497,68.9903854 210.748643,67.7911702 211.71296,66.8021268 C212.677278,65.8130833 213.802315,65.0589377 215.088071,64.5396898 C216.373828,64.020442 217.758489,63.7608181 219.242054,63.7608181 C221.071784,63.7608181 222.728432,64.0946203 224.211997,64.7622246 C225.695562,65.429829 226.931867,66.4065094 227.92091,67.6922659 L227.92091,67.6922659 L238.750936,54.6368921 C236.32778,52.4115443 233.311197,50.6436292 229.701188,49.3331466 C226.09118,48.022664 222.258636,47.3674227 218.203558,47.3674227 C214.247384,47.3674227 210.526108,48.022664 207.03973,49.3331466 C203.553352,50.6436292 200.524406,52.5104487 197.952893,54.9336052 C195.38138,57.3567617 193.353841,60.2744399 191.870276,63.6866399 C190.386711,67.0988398 189.644928,70.9066572 189.644928,75.1100919 C189.644928,79.2640744 190.386711,83.0348027 191.870276,86.4222765 C193.353841,89.8097504 195.38138,92.7274286 197.952893,95.1753112 C200.524406,97.6231938 203.553352,99.5147394 207.03973,100.849948 C210.526108,102.185157 214.247384,102.852761 218.203558,102.852761 Z M269.468801,102.852761 C273.622784,102.852761 277.480053,102.185157 281.04061,100.849948 C284.601166,99.5147394 287.691927,97.6231938 290.312892,95.1753112 C292.933857,92.7274286 294.986123,89.7726613 296.469688,86.3110091 C297.953253,82.849357 298.695036,79.0168136 298.695036,74.8133788 C298.695036,70.6099441 297.953253,66.8144898 296.469688,63.4270159 C294.986123,60.0395421 292.933857,57.158953 290.312892,54.7852487 C287.691927,52.4115443 284.601166,50.5818139 281.04061,49.2960574 C277.480053,48.0103009 273.622784,47.3674227 269.468801,47.3674227 C265.314819,47.3674227 261.457549,48.0103009 257.896993,49.2960574 C254.336436,50.5818139 251.258038,52.4115443 248.661799,54.7852487 C246.06556,57.158953 244.025658,60.0395421 242.542093,63.4270159 C241.058528,66.8144898 240.316745,70.6099441 240.316745,74.8133788 C240.316745,79.0168136 241.058528,82.849357 242.542093,86.3110091 C244.025658,89.7726613 246.06556,92.7274286 248.661799,95.1753112 C251.258038,97.6231938 254.336436,99.5147394 257.896993,100.849948 C261.457549,102.185157 265.314819,102.852761 269.468801,102.852761 Z M269.468801,86.5335439 C267.985236,86.5335439 266.600575,86.2491939 265.314819,85.6804939 C264.029062,85.1117939 262.928751,84.3081961 262.013886,83.2697005 C261.099021,82.2312048 260.381964,80.9949005 259.862716,79.5607875 C259.343469,78.1266745 259.083845,76.5442049 259.083845,74.8133788 C259.083845,73.132005 259.343469,71.5866245 259.862716,70.1772376 C260.381964,68.7678507 261.099021,67.5809985 262.013886,66.6166811 C262.928751,65.6523637 264.029062,64.8982181 265.314819,64.3542442 C266.600575,63.8102703 267.985236,63.5382833 269.468801,63.5382833 C270.952366,63.5382833 272.324664,63.8102703 273.585695,64.3542442 C274.846725,64.8982181 275.947036,65.6523637 276.886627,66.6166811 C277.826218,67.5809985 278.555638,68.7678507 279.074886,70.1772376 C279.594134,71.5866245 279.853758,73.132005 279.853758,74.8133788 C279.853758,76.5442049 279.594134,78.1266745 279.074886,79.5607875 C278.555638,80.9949005 277.826218,82.2312048 276.886627,83.2697005 C275.947036,84.3081961 274.846725,85.1117939 273.585695,85.6804939 C272.324664,86.2491939 270.952366,86.5335439 269.468801,86.5335439 Z M329.635435,102.852761 C333.739966,102.852761 337.337611,102.284061 340.428372,101.146661 C343.519133,100.009261 346.103009,98.4515177 348.18,96.4734307 C350.256992,94.4953438 351.827098,92.1587286 352.89032,89.4635852 C353.953542,86.7684417 354.485152,83.8631266 354.485152,80.7476396 L354.485152,80.7476396 L354.485152,48.8509879 L336.904905,48.8509879 L336.904905,78.8190049 C336.904905,81.3410657 336.299116,83.3067896 335.087537,84.7161765 C333.875959,86.1255635 332.157496,86.830257 329.932148,86.830257 C327.706801,86.830257 325.988338,86.1255635 324.776759,84.7161765 C323.565181,83.3067896 322.959392,81.3410657 322.959392,78.8190049 L322.959392,78.8190049 L322.959392,48.8509879 L305.304966,48.8509879 L305.304966,80.7476396 C305.304966,83.8631266 305.799488,86.7684417 306.788531,89.4635852 C307.777575,92.1587286 309.285866,94.4953438 311.313405,96.4734307 C313.340944,98.4515177 315.875368,100.009261 318.916677,101.146661 C321.957985,102.284061 325.530905,102.852761 329.635435,102.852761 Z M380.529787,101.369196 L380.529787,82.6020961 L381.049035,82.6020961 L391.137278,101.369196 L411.462121,101.369196 L398.110035,80.0800353 C401.077165,78.7448266 403.351965,76.853281 404.934435,74.4053984 C406.516904,71.9575158 407.308139,69.1263789 407.308139,65.9119877 C407.308139,62.598692 406.689987,59.8417334 405.453682,57.6411117 C404.217378,55.44049 402.597819,53.6849378 400.595006,52.3744552 C398.592193,51.0639726 396.317393,50.1491074 393.770606,49.6298596 C391.22382,49.1106118 388.66467,48.8509879 386.093157,48.8509879 L386.093157,48.8509879 L363.468787,48.8509879 L363.468787,101.369196 L380.529787,101.369196 Z M383.867809,71.0302876 L380.381431,71.0302876 L380.381431,62.573966 L384.609591,62.573966 C385.153565,62.573966 385.746991,62.6110551 386.38987,62.6852333 C387.032748,62.7594116 387.626174,62.9324942 388.170148,63.2044812 C388.714122,63.4764681 389.159191,63.8844485 389.505357,64.4284225 C389.851522,64.9723964 390.024604,65.714179 390.024604,66.6537703 C390.024604,67.5933615 389.814433,68.3475072 389.394089,68.9162072 C388.973746,69.4849072 388.454498,69.9299767 387.836346,70.2514159 C387.218193,70.572855 386.550589,70.7830267 385.833533,70.8819311 C385.116476,70.9808354 384.461235,71.0302876 383.867809,71.0302876 L383.867809,71.0302876 Z M433.575308,102.852761 C436.245726,102.852761 438.866691,102.469507 441.438204,101.702998 C444.009717,100.936489 446.321606,99.7743633 448.373871,98.2166199 C450.426136,96.6588764 452.082784,94.7055155 453.343815,92.3565373 C454.604845,90.0075591 455.23536,87.2506004 455.23536,84.0856613 C455.23536,81.3657918 454.66666,79.0909918 453.52926,77.2612614 C452.39186,75.431531 450.945384,73.8861506 449.189832,72.6251202 C447.43428,71.3640898 445.518008,70.3379572 443.441017,69.5467224 C441.364026,68.7554876 439.385939,68.0631572 437.506756,67.4697311 C435.677026,66.876305 434.35418,66.3817833 433.538219,65.9861659 C432.722258,65.5905485 432.314278,64.9971224 432.314278,64.2058877 C432.314278,63.3652007 432.709895,62.7594116 433.50113,62.3885203 C434.292365,62.017629 435.33086,61.8321834 436.616617,61.8321834 C438.001278,61.8321834 439.559021,62.2154377 441.289847,62.9819464 C443.020673,63.7484551 444.479513,64.873492 445.666365,66.3570572 L445.666365,66.3570572 L456.644747,55.15614 C453.924878,52.6340791 450.772302,50.7054444 447.187019,49.3702357 C443.601736,48.035027 440.078269,47.3674227 436.616617,47.3674227 C434.045104,47.3674227 431.448865,47.6888618 428.8279,48.3317401 C426.206934,48.9746183 423.845593,50.025477 421.743876,51.4843161 C419.642158,52.9431552 417.923695,54.8099748 416.588487,57.0847747 C415.253278,59.3595747 414.585674,62.1288964 414.585674,65.3927398 C414.585674,67.716992 414.956565,69.707442 415.698348,71.3640898 C416.44013,73.0207376 417.441537,74.4424875 418.702567,75.6293397 C419.963598,76.8161919 421.410074,77.8175984 423.041995,78.6335592 C424.673917,79.4495201 426.380017,80.1542136 428.160295,80.7476396 C429.990026,81.3410657 431.51068,81.8603135 432.722258,82.3053831 C433.933837,82.7504527 434.885791,83.1584331 435.578121,83.5293244 C436.270452,83.9002157 436.75261,84.2587439 437.024597,84.6049092 C437.296584,84.9510744 437.432578,85.3714178 437.432578,85.8659396 C437.432578,86.8055309 437.024597,87.4484091 436.208637,87.7945743 C435.392676,88.1407395 434.490174,88.3138222 433.50113,88.3138222 C431.325234,88.3138222 429.211154,87.7945743 427.158889,86.7560787 C425.106624,85.7175831 423.462339,84.5307309 422.226035,83.1955222 L422.226035,83.1955222 L411.470187,94.9156873 C412.805396,96.1025394 414.313687,97.1781242 415.995061,98.1424416 C417.676435,99.106759 419.469076,99.9474459 421.372985,100.664502 C423.276893,101.381559 425.25498,101.925533 427.307245,102.296424 C429.359511,102.667315 431.448865,102.852761 433.575308,102.852761 Z M488.846177,102.852761 C493.00016,102.852761 496.857429,102.185157 500.417986,100.849948 C503.978542,99.5147394 507.069303,97.6231938 509.690268,95.1753112 C512.311234,92.7274286 514.363499,89.7726613 515.847064,86.3110091 C517.330629,82.849357 518.072412,79.0168136 518.072412,74.8133788 C518.072412,70.6099441 517.330629,66.8144898 515.847064,63.4270159 C514.363499,60.0395421 512.311234,57.158953 509.690268,54.7852487 C507.069303,52.4115443 503.978542,50.5818139 500.417986,49.2960574 C496.857429,48.0103009 493.00016,47.3674227 488.846177,47.3674227 C484.692195,47.3674227 480.834925,48.0103009 477.274369,49.2960574 C473.713812,50.5818139 470.635415,52.4115443 468.039175,54.7852487 C465.442936,57.158953 463.403034,60.0395421 461.919469,63.4270159 C460.435904,66.8144898 459.694121,70.6099441 459.694121,74.8133788 C459.694121,79.0168136 460.435904,82.849357 461.919469,86.3110091 C463.403034,89.7726613 465.442936,92.7274286 468.039175,95.1753112 C470.635415,97.6231938 473.713812,99.5147394 477.274369,100.849948 C480.834925,102.185157 484.692195,102.852761 488.846177,102.852761 Z M488.846177,86.5335439 C487.362612,86.5335439 485.977951,86.2491939 484.692195,85.6804939 C483.406438,85.1117939 482.306127,84.3081961 481.391262,83.2697005 C480.476397,82.2312048 479.759341,80.9949005 479.240093,79.5607875 C478.720845,78.1266745 478.461221,76.5442049 478.461221,74.8133788 C478.461221,73.132005 478.720845,71.5866245 479.240093,70.1772376 C479.759341,68.7678507 480.476397,67.5809985 481.391262,66.6166811 C482.306127,65.6523637 483.406438,64.8982181 484.692195,64.3542442 C485.977951,63.8102703 487.362612,63.5382833 488.846177,63.5382833 C490.329743,63.5382833 491.70204,63.8102703 492.963071,64.3542442 C494.224101,64.8982181 495.324412,65.6523637 496.264003,66.6166811 C497.203595,67.5809985 497.933014,68.7678507 498.452262,70.1772376 C498.97151,71.5866245 499.231134,73.132005 499.231134,74.8133788 C499.231134,76.5442049 498.97151,78.1266745 498.452262,79.5607875 C497.933014,80.9949005 497.203595,82.2312048 496.264003,83.2697005 C495.324412,84.3081961 494.224101,85.1117939 492.963071,85.6804939 C491.70204,86.2491939 490.329743,86.5335439 488.846177,86.5335439 Z" id="COURSO" fill="#ffffff" fill-rule="nonzero"></path>
    </g>
</svg>
